<?xml version="1.0" standalone="no"?>
<!DOCTYPE svg PUBLIC "-//W3C//DTD SVG 20010904//EN"
 "http://www.w3.org/TR/2001/REC-SVG-20010904/DTD/svg10.dtd">
<svg version="1.0" xmlns="http://www.w3.org/2000/svg"
 width="200.000000pt" height="200.000000pt" viewBox="0 0 200.000000 200.000000"
 preserveAspectRatio="xMidYMid meet">

<g transform="translate(0.000000,200.000000) scale(0.100000,-0.100000)"
fill="#000000" stroke="none">
<path d="M300 1986 c-114 -25 -210 -101 -258 -204 -24 -50 -27 -70 -27 -157 0
-93 2 -105 32 -166 39 -79 102 -140 181 -177 48 -22 71 -26 147 -27 50 0 99 4
109 8 18 7 16 11 -18 46 -33 34 -45 39 -95 44 -149 13 -248 112 -259 258 -3
51 0 75 16 111 63 142 222 209 357 149 99 -44 155 -122 163 -231 5 -60 8 -68
44 -99 21 -19 42 -31 46 -27 4 4 7 53 7 109 0 90 -3 109 -27 159 -50 107 -153
185 -273 207 -69 13 -74 13 -145 -3z"/>
<path d="M1513 1956 c-101 -33 -195 -115 -235 -204 -23 -52 -36 -209 -21 -250
l9 -23 41 35 c38 33 41 39 45 98 5 74 26 123 74 172 58 60 108 81 194 81 65 0
82 -4 130 -31 95 -53 147 -154 137 -267 -12 -131 -126 -236 -257 -237 -54 0
-57 -2 -93 -44 l-37 -44 28 -6 c80 -16 105 -17 158 -6 106 22 181 71 238 153
132 193 60 458 -152 555 -69 31 -192 40 -259 18z"/>
<path d="M355 1678 c-29 -16 -35 -28 -35 -68 0 -31 12 -48 114 -152 245 -252
321 -393 286 -537 -19 -81 -118 -218 -267 -372 -125 -129 -133 -140 -133 -177
0 -48 27 -76 75 -76 29 0 50 16 169 132 218 210 362 293 479 278 109 -15 244
-105 428 -286 63 -62 124 -116 137 -121 51 -20 102 17 102 74 0 23 -24 53
-119 152 -214 222 -291 345 -291 467 0 120 74 238 289 462 134 138 145 163 96
211 -49 50 -74 38 -235 -119 -133 -130 -224 -200 -311 -241 -81 -37 -185 -36
-265 5 -86 43 -182 119 -320 252 -125 121 -158 141 -199 116z m733 -532 c60
-31 93 -86 94 -156 1 -146 -169 -223 -279 -127 -92 80 -81 211 23 273 45 28
120 32 162 10z"/>
<path d="M953 1081 c-54 -34 -63 -114 -18 -161 35 -37 73 -45 118 -26 68 28
88 113 40 166 -37 41 -94 50 -140 21z"/>
<path d="M1516 752 c-18 -8 -16 -12 17 -49 34 -37 42 -41 100 -45 146 -12 251
-126 250 -273 -1 -191 -206 -322 -378 -241 -96 45 -150 122 -162 235 -5 56 -9
64 -44 92 -36 28 -40 29 -46 12 -5 -10 -8 -57 -8 -104 0 -76 4 -93 33 -152 38
-77 101 -137 182 -176 78 -37 201 -42 283 -11 151 57 239 186 240 355 1 70 -3
89 -30 147 -39 82 -105 151 -181 186 -46 22 -74 27 -147 29 -49 1 -99 -1 -109
-5z"/>
<path d="M293 735 c-157 -49 -263 -189 -265 -352 -1 -109 32 -194 107 -268
200 -200 541 -115 621 156 16 52 17 199 2 214 -4 4 -25 -8 -47 -26 -37 -31
-41 -39 -41 -80 -1 -231 -275 -357 -447 -205 -61 54 -93 123 -93 204 0 145
107 255 262 269 51 5 62 10 88 40 17 18 30 37 30 42 0 23 -150 27 -217 6z"/>
</g>
</svg>
